<mxfile host="drawio-plugin" modified="2021-04-18T22:37:43.806Z" agent="5.0 (X11; Linux x86_64) AppleWebKit/537.36 (KHTML, like Gecko) Chrome/87.0.4280.141 Safari/537.36" etag="xuK31pC3fqPh96RuTCdT" version="13.7.9" type="embed"><diagram id="2zVzznr61p73fuEzWiJb" name="DER"><mxGraphModel dx="368" dy="288" grid="1" gridSize="10" guides="1" tooltips="1" connect="1" arrows="1" fold="1" page="1" pageScale="1" pageWidth="827" pageHeight="1169" math="0" shadow="0"><root><mxCell id="q4gJIiIvbS1eZ_yKjsUI-0"/><mxCell id="q4gJIiIvbS1eZ_yKjsUI-1" parent="q4gJIiIvbS1eZ_yKjsUI-0"/><mxCell id="tMIzNla4LTOfME5UGENZ-0" value="Cliente" style="shape=table;startSize=30;container=1;collapsible=1;childLayout=tableLayout;fixedRows=1;rowLines=0;fontStyle=1;align=center;resizeLast=1;fontSize=12;" parent="q4gJIiIvbS1eZ_yKjsUI-1" vertex="1"><mxGeometry x="20" y="10" width="250" height="240" as="geometry"/></mxCell><mxCell id="tMIzNla4LTOfME5UGENZ-1" value="" style="shape=partialRectangle;collapsible=0;dropTarget=0;pointerEvents=0;fillColor=none;points=[[0,0.5],[1,0.5]];portConstraint=eastwest;top=0;left=0;right=0;bottom=1;fontSize=12;" parent="tMIzNla4LTOfME5UGENZ-0" vertex="1"><mxGeometry y="30" width="250" height="30" as="geometry"/></mxCell><mxCell id="tMIzNla4LTOfME5UGENZ-2" value="PK" style="shape=partialRectangle;overflow=hidden;connectable=0;fillColor=none;top=0;left=0;bottom=0;right=0;fontStyle=1;fontSize=12;" parent="tMIzNla4LTOfME5UGENZ-1" vertex="1"><mxGeometry width="30" height="30" as="geometry"/></mxCell><mxCell id="tMIzNla4LTOfME5UGENZ-3" value="id int NOT NULL " style="shape=partialRectangle;overflow=hidden;connectable=0;fillColor=none;top=0;left=0;bottom=0;right=0;align=left;spacingLeft=6;fontStyle=5;fontSize=12;" parent="tMIzNla4LTOfME5UGENZ-1" vertex="1"><mxGeometry x="30" width="220" height="30" as="geometry"/></mxCell><mxCell id="tMIzNla4LTOfME5UGENZ-4" value="" style="shape=partialRectangle;collapsible=0;dropTarget=0;pointerEvents=0;fillColor=none;points=[[0,0.5],[1,0.5]];portConstraint=eastwest;top=0;left=0;right=0;bottom=0;fontSize=12;" parent="tMIzNla4LTOfME5UGENZ-0" vertex="1"><mxGeometry y="60" width="250" height="30" as="geometry"/></mxCell><mxCell id="tMIzNla4LTOfME5UGENZ-5" value="" style="shape=partialRectangle;overflow=hidden;connectable=0;fillColor=none;top=0;left=0;bottom=0;right=0;fontSize=12;" parent="tMIzNla4LTOfME5UGENZ-4" vertex="1"><mxGeometry width="30" height="30" as="geometry"/></mxCell><mxCell id="tMIzNla4LTOfME5UGENZ-6" value="nome varchar(50) NOT NULL" style="shape=partialRectangle;overflow=hidden;connectable=0;fillColor=none;top=0;left=0;bottom=0;right=0;align=left;spacingLeft=6;fontSize=12;" parent="tMIzNla4LTOfME5UGENZ-4" vertex="1"><mxGeometry x="30" width="220" height="30" as="geometry"/></mxCell><mxCell id="tMIzNla4LTOfME5UGENZ-7" value="" style="shape=partialRectangle;collapsible=0;dropTarget=0;pointerEvents=0;fillColor=none;points=[[0,0.5],[1,0.5]];portConstraint=eastwest;top=0;left=0;right=0;bottom=0;fontSize=12;" parent="tMIzNla4LTOfME5UGENZ-0" vertex="1"><mxGeometry y="90" width="250" height="30" as="geometry"/></mxCell><mxCell id="tMIzNla4LTOfME5UGENZ-8" value="" style="shape=partialRectangle;overflow=hidden;connectable=0;fillColor=none;top=0;left=0;bottom=0;right=0;fontSize=12;" parent="tMIzNla4LTOfME5UGENZ-7" vertex="1"><mxGeometry width="30" height="30" as="geometry"/></mxCell><mxCell id="tMIzNla4LTOfME5UGENZ-9" value="cpf varchar(11) NOT NULL" style="shape=partialRectangle;overflow=hidden;connectable=0;fillColor=none;top=0;left=0;bottom=0;right=0;align=left;spacingLeft=6;fontSize=12;" parent="tMIzNla4LTOfME5UGENZ-7" vertex="1"><mxGeometry x="30" width="220" height="30" as="geometry"/></mxCell><mxCell id="tMIzNla4LTOfME5UGENZ-10" value="" style="shape=partialRectangle;collapsible=0;dropTarget=0;pointerEvents=0;fillColor=none;points=[[0,0.5],[1,0.5]];portConstraint=eastwest;top=0;left=0;right=0;bottom=0;fontSize=12;" parent="tMIzNla4LTOfME5UGENZ-0" vertex="1"><mxGeometry y="120" width="250" height="30" as="geometry"/></mxCell><mxCell id="tMIzNla4LTOfME5UGENZ-11" value="" style="shape=partialRectangle;overflow=hidden;connectable=0;fillColor=none;top=0;left=0;bottom=0;right=0;fontSize=12;" parent="tMIzNla4LTOfME5UGENZ-10" vertex="1"><mxGeometry width="30" height="30" as="geometry"/></mxCell><mxCell id="tMIzNla4LTOfME5UGENZ-12" value="rg varchar(9) NOT NULL" style="shape=partialRectangle;overflow=hidden;connectable=0;fillColor=none;top=0;left=0;bottom=0;right=0;align=left;spacingLeft=6;fontSize=12;" parent="tMIzNla4LTOfME5UGENZ-10" vertex="1"><mxGeometry x="30" width="220" height="30" as="geometry"/></mxCell><mxCell id="tMIzNla4LTOfME5UGENZ-13" value="" style="shape=partialRectangle;collapsible=0;dropTarget=0;pointerEvents=0;fillColor=none;points=[[0,0.5],[1,0.5]];portConstraint=eastwest;top=0;left=0;right=0;bottom=0;fontSize=12;" parent="tMIzNla4LTOfME5UGENZ-0" vertex="1"><mxGeometry y="150" width="250" height="30" as="geometry"/></mxCell><mxCell id="tMIzNla4LTOfME5UGENZ-14" value="" style="shape=partialRectangle;overflow=hidden;connectable=0;fillColor=none;top=0;left=0;bottom=0;right=0;fontSize=12;" parent="tMIzNla4LTOfME5UGENZ-13" vertex="1"><mxGeometry width="30" height="30" as="geometry"/></mxCell><mxCell id="tMIzNla4LTOfME5UGENZ-15" value="nascimento date NULL" style="shape=partialRectangle;overflow=hidden;connectable=0;fillColor=none;top=0;left=0;bottom=0;right=0;align=left;spacingLeft=6;fontSize=12;" parent="tMIzNla4LTOfME5UGENZ-13" vertex="1"><mxGeometry x="30" width="220" height="30" as="geometry"/></mxCell><mxCell id="tMIzNla4LTOfME5UGENZ-16" value="" style="shape=partialRectangle;collapsible=0;dropTarget=0;pointerEvents=0;fillColor=none;points=[[0,0.5],[1,0.5]];portConstraint=eastwest;top=0;left=0;right=0;bottom=0;fontSize=12;" parent="tMIzNla4LTOfME5UGENZ-0" vertex="1"><mxGeometry y="180" width="250" height="30" as="geometry"/></mxCell><mxCell id="tMIzNla4LTOfME5UGENZ-17" value="" style="shape=partialRectangle;overflow=hidden;connectable=0;fillColor=none;top=0;left=0;bottom=0;right=0;fontSize=12;" parent="tMIzNla4LTOfME5UGENZ-16" vertex="1"><mxGeometry width="30" height="30" as="geometry"/></mxCell><mxCell id="tMIzNla4LTOfME5UGENZ-18" value="sexo varchar(10) NULL" style="shape=partialRectangle;overflow=hidden;connectable=0;fillColor=none;top=0;left=0;bottom=0;right=0;align=left;spacingLeft=6;fontSize=12;" parent="tMIzNla4LTOfME5UGENZ-16" vertex="1"><mxGeometry x="30" width="220" height="30" as="geometry"/></mxCell><mxCell id="tMIzNla4LTOfME5UGENZ-19" value="" style="shape=partialRectangle;collapsible=0;dropTarget=0;pointerEvents=0;fillColor=none;points=[[0,0.5],[1,0.5]];portConstraint=eastwest;top=0;left=0;right=0;bottom=0;fontSize=12;" parent="tMIzNla4LTOfME5UGENZ-0" vertex="1"><mxGeometry y="210" width="250" height="30" as="geometry"/></mxCell><mxCell id="tMIzNla4LTOfME5UGENZ-20" value="FK" style="shape=partialRectangle;overflow=hidden;connectable=0;fillColor=none;top=0;left=0;bottom=0;right=0;fontSize=12;" parent="tMIzNla4LTOfME5UGENZ-19" vertex="1"><mxGeometry width="30" height="30" as="geometry"/></mxCell><mxCell id="tMIzNla4LTOfME5UGENZ-21" value="endereco_fk int NOT NULL" style="shape=partialRectangle;overflow=hidden;connectable=0;fillColor=none;top=0;left=0;bottom=0;right=0;align=left;spacingLeft=6;fontSize=12;" parent="tMIzNla4LTOfME5UGENZ-19" vertex="1"><mxGeometry x="30" width="220" height="30" as="geometry"/></mxCell><mxCell id="sFjmhWVr8jOIQ81VV_jN-1" value="" style="edgeStyle=orthogonalEdgeStyle;fontSize=12;html=1;endArrow=ERmandOne;startArrow=ERmandOne;exitX=1;exitY=0.5;exitDx=0;exitDy=0;entryX=0;entryY=0.5;entryDx=0;entryDy=0;" parent="q4gJIiIvbS1eZ_yKjsUI-1" source="tMIzNla4LTOfME5UGENZ-19" target="tMIzNla4LTOfME5UGENZ-45" edge="1"><mxGeometry width="100" height="100" relative="1" as="geometry"><mxPoint x="340" y="220" as="sourcePoint"/><mxPoint x="440" y="120" as="targetPoint"/></mxGeometry></mxCell><mxCell id="tMIzNla4LTOfME5UGENZ-44" value="Endereco" style="shape=table;startSize=30;container=1;collapsible=1;childLayout=tableLayout;fixedRows=1;rowLines=0;fontStyle=1;align=center;resizeLast=1;fontSize=12;" parent="q4gJIiIvbS1eZ_yKjsUI-1" vertex="1"><mxGeometry x="380" y="320" width="250" height="240" as="geometry"/></mxCell><mxCell id="tMIzNla4LTOfME5UGENZ-45" value="" style="shape=partialRectangle;collapsible=0;dropTarget=0;pointerEvents=0;fillColor=none;points=[[0,0.5],[1,0.5]];portConstraint=eastwest;top=0;left=0;right=0;bottom=1;fontSize=12;" parent="tMIzNla4LTOfME5UGENZ-44" vertex="1"><mxGeometry y="30" width="250" height="30" as="geometry"/></mxCell><mxCell id="tMIzNla4LTOfME5UGENZ-46" value="PK" style="shape=partialRectangle;overflow=hidden;connectable=0;fillColor=none;top=0;left=0;bottom=0;right=0;fontStyle=1;fontSize=12;" parent="tMIzNla4LTOfME5UGENZ-45" vertex="1"><mxGeometry width="30" height="30" as="geometry"/></mxCell><mxCell id="tMIzNla4LTOfME5UGENZ-47" value="id int NOT NULL " style="shape=partialRectangle;overflow=hidden;connectable=0;fillColor=none;top=0;left=0;bottom=0;right=0;align=left;spacingLeft=6;fontStyle=5;fontSize=12;" parent="tMIzNla4LTOfME5UGENZ-45" vertex="1"><mxGeometry x="30" width="220" height="30" as="geometry"/></mxCell><mxCell id="tMIzNla4LTOfME5UGENZ-48" value="" style="shape=partialRectangle;collapsible=0;dropTarget=0;pointerEvents=0;fillColor=none;points=[[0,0.5],[1,0.5]];portConstraint=eastwest;top=0;left=0;right=0;bottom=0;fontSize=12;" parent="tMIzNla4LTOfME5UGENZ-44" vertex="1"><mxGeometry y="60" width="250" height="30" as="geometry"/></mxCell><mxCell id="tMIzNla4LTOfME5UGENZ-49" value="" style="shape=partialRectangle;overflow=hidden;connectable=0;fillColor=none;top=0;left=0;bottom=0;right=0;fontSize=12;" parent="tMIzNla4LTOfME5UGENZ-48" vertex="1"><mxGeometry width="30" height="30" as="geometry"/></mxCell><mxCell id="tMIzNla4LTOfME5UGENZ-50" value="logradouro varchar(100) NOT NULL" style="shape=partialRectangle;overflow=hidden;connectable=0;fillColor=none;top=0;left=0;bottom=0;right=0;align=left;spacingLeft=6;fontSize=12;" parent="tMIzNla4LTOfME5UGENZ-48" vertex="1"><mxGeometry x="30" width="220" height="30" as="geometry"/></mxCell><mxCell id="tMIzNla4LTOfME5UGENZ-51" value="" style="shape=partialRectangle;collapsible=0;dropTarget=0;pointerEvents=0;fillColor=none;points=[[0,0.5],[1,0.5]];portConstraint=eastwest;top=0;left=0;right=0;bottom=0;fontSize=12;" parent="tMIzNla4LTOfME5UGENZ-44" vertex="1"><mxGeometry y="90" width="250" height="30" as="geometry"/></mxCell><mxCell id="tMIzNla4LTOfME5UGENZ-52" value="" style="shape=partialRectangle;overflow=hidden;connectable=0;fillColor=none;top=0;left=0;bottom=0;right=0;fontSize=12;" parent="tMIzNla4LTOfME5UGENZ-51" vertex="1"><mxGeometry width="30" height="30" as="geometry"/></mxCell><mxCell id="tMIzNla4LTOfME5UGENZ-53" value="numero varchar(5) NOT NULL" style="shape=partialRectangle;overflow=hidden;connectable=0;fillColor=none;top=0;left=0;bottom=0;right=0;align=left;spacingLeft=6;fontSize=12;" parent="tMIzNla4LTOfME5UGENZ-51" vertex="1"><mxGeometry x="30" width="220" height="30" as="geometry"/></mxCell><mxCell id="tMIzNla4LTOfME5UGENZ-54" value="" style="shape=partialRectangle;collapsible=0;dropTarget=0;pointerEvents=0;fillColor=none;points=[[0,0.5],[1,0.5]];portConstraint=eastwest;top=0;left=0;right=0;bottom=0;fontSize=12;" parent="tMIzNla4LTOfME5UGENZ-44" vertex="1"><mxGeometry y="120" width="250" height="30" as="geometry"/></mxCell><mxCell id="tMIzNla4LTOfME5UGENZ-55" value="" style="shape=partialRectangle;overflow=hidden;connectable=0;fillColor=none;top=0;left=0;bottom=0;right=0;fontSize=12;" parent="tMIzNla4LTOfME5UGENZ-54" vertex="1"><mxGeometry width="30" height="30" as="geometry"/></mxCell><mxCell id="tMIzNla4LTOfME5UGENZ-56" value="cep varchar(9) NOT NULL" style="shape=partialRectangle;overflow=hidden;connectable=0;fillColor=none;top=0;left=0;bottom=0;right=0;align=left;spacingLeft=6;fontSize=12;" parent="tMIzNla4LTOfME5UGENZ-54" vertex="1"><mxGeometry x="30" width="220" height="30" as="geometry"/></mxCell><mxCell id="tMIzNla4LTOfME5UGENZ-57" value="" style="shape=partialRectangle;collapsible=0;dropTarget=0;pointerEvents=0;fillColor=none;points=[[0,0.5],[1,0.5]];portConstraint=eastwest;top=0;left=0;right=0;bottom=0;fontSize=12;" parent="tMIzNla4LTOfME5UGENZ-44" vertex="1"><mxGeometry y="150" width="250" height="30" as="geometry"/></mxCell><mxCell id="tMIzNla4LTOfME5UGENZ-58" value="" style="shape=partialRectangle;overflow=hidden;connectable=0;fillColor=none;top=0;left=0;bottom=0;right=0;fontSize=12;" parent="tMIzNla4LTOfME5UGENZ-57" vertex="1"><mxGeometry width="30" height="30" as="geometry"/></mxCell><mxCell id="tMIzNla4LTOfME5UGENZ-59" value="complemento varchar(100) NULL" style="shape=partialRectangle;overflow=hidden;connectable=0;fillColor=none;top=0;left=0;bottom=0;right=0;align=left;spacingLeft=6;fontSize=12;" parent="tMIzNla4LTOfME5UGENZ-57" vertex="1"><mxGeometry x="30" width="220" height="30" as="geometry"/></mxCell><mxCell id="tMIzNla4LTOfME5UGENZ-60" value="" style="shape=partialRectangle;collapsible=0;dropTarget=0;pointerEvents=0;fillColor=none;points=[[0,0.5],[1,0.5]];portConstraint=eastwest;top=0;left=0;right=0;bottom=0;fontSize=12;" parent="tMIzNla4LTOfME5UGENZ-44" vertex="1"><mxGeometry y="180" width="250" height="30" as="geometry"/></mxCell><mxCell id="tMIzNla4LTOfME5UGENZ-61" value="" style="shape=partialRectangle;overflow=hidden;connectable=0;fillColor=none;top=0;left=0;bottom=0;right=0;fontSize=12;" parent="tMIzNla4LTOfME5UGENZ-60" vertex="1"><mxGeometry width="30" height="30" as="geometry"/></mxCell><mxCell id="tMIzNla4LTOfME5UGENZ-62" value="bairro varchar(50) NOT NULL" style="shape=partialRectangle;overflow=hidden;connectable=0;fillColor=none;top=0;left=0;bottom=0;right=0;align=left;spacingLeft=6;fontSize=12;" parent="tMIzNla4LTOfME5UGENZ-60" vertex="1"><mxGeometry x="30" width="220" height="30" as="geometry"/></mxCell><mxCell id="tMIzNla4LTOfME5UGENZ-63" value="" style="shape=partialRectangle;collapsible=0;dropTarget=0;pointerEvents=0;fillColor=none;points=[[0,0.5],[1,0.5]];portConstraint=eastwest;top=0;left=0;right=0;bottom=0;fontSize=12;" parent="tMIzNla4LTOfME5UGENZ-44" vertex="1"><mxGeometry y="210" width="250" height="30" as="geometry"/></mxCell><mxCell id="tMIzNla4LTOfME5UGENZ-64" value="FK" style="shape=partialRectangle;overflow=hidden;connectable=0;fillColor=none;top=0;left=0;bottom=0;right=0;fontSize=12;" parent="tMIzNla4LTOfME5UGENZ-63" vertex="1"><mxGeometry width="30" height="30" as="geometry"/></mxCell><mxCell id="tMIzNla4LTOfME5UGENZ-65" value="cidade_fk int NOT NULL" style="shape=partialRectangle;overflow=hidden;connectable=0;fillColor=none;top=0;left=0;bottom=0;right=0;align=left;spacingLeft=6;fontSize=12;" parent="tMIzNla4LTOfME5UGENZ-63" vertex="1"><mxGeometry x="30" width="220" height="30" as="geometry"/></mxCell><mxCell id="G_IG8xLIvht6qTOggAEC-0" value="Setor" style="shape=table;startSize=30;container=1;collapsible=1;childLayout=tableLayout;fixedRows=1;rowLines=0;fontStyle=1;align=center;resizeLast=1;fontSize=12;" parent="q4gJIiIvbS1eZ_yKjsUI-1" vertex="1"><mxGeometry x="510" y="80" width="250" height="90" as="geometry"/></mxCell><mxCell id="G_IG8xLIvht6qTOggAEC-1" value="" style="shape=partialRectangle;collapsible=0;dropTarget=0;pointerEvents=0;fillColor=none;points=[[0,0.5],[1,0.5]];portConstraint=eastwest;top=0;left=0;right=0;bottom=1;fontSize=12;" parent="G_IG8xLIvht6qTOggAEC-0" vertex="1"><mxGeometry y="30" width="250" height="30" as="geometry"/></mxCell><mxCell id="G_IG8xLIvht6qTOggAEC-2" value="PK" style="shape=partialRectangle;overflow=hidden;connectable=0;fillColor=none;top=0;left=0;bottom=0;right=0;fontStyle=1;fontSize=12;" parent="G_IG8xLIvht6qTOggAEC-1" vertex="1"><mxGeometry width="30" height="30" as="geometry"/></mxCell><mxCell id="G_IG8xLIvht6qTOggAEC-3" value="id int NOT NULL " style="shape=partialRectangle;overflow=hidden;connectable=0;fillColor=none;top=0;left=0;bottom=0;right=0;align=left;spacingLeft=6;fontStyle=5;fontSize=12;" parent="G_IG8xLIvht6qTOggAEC-1" vertex="1"><mxGeometry x="30" width="220" height="30" as="geometry"/></mxCell><mxCell id="G_IG8xLIvht6qTOggAEC-4" value="" style="shape=partialRectangle;collapsible=0;dropTarget=0;pointerEvents=0;fillColor=none;points=[[0,0.5],[1,0.5]];portConstraint=eastwest;top=0;left=0;right=0;bottom=0;fontSize=12;" parent="G_IG8xLIvht6qTOggAEC-0" vertex="1"><mxGeometry y="60" width="250" height="30" as="geometry"/></mxCell><mxCell id="G_IG8xLIvht6qTOggAEC-5" value="" style="shape=partialRectangle;overflow=hidden;connectable=0;fillColor=none;top=0;left=0;bottom=0;right=0;fontSize=12;" parent="G_IG8xLIvht6qTOggAEC-4" vertex="1"><mxGeometry width="30" height="30" as="geometry"/></mxCell><mxCell id="G_IG8xLIvht6qTOggAEC-6" value="nome varchar(10) NOT NULL" style="shape=partialRectangle;overflow=hidden;connectable=0;fillColor=none;top=0;left=0;bottom=0;right=0;align=left;spacingLeft=6;fontSize=12;" parent="G_IG8xLIvht6qTOggAEC-4" vertex="1"><mxGeometry x="30" width="220" height="30" as="geometry"/></mxCell><mxCell id="tDF9gC9092chXieuoFsO-0" value="Cidade" style="shape=table;startSize=30;container=1;collapsible=1;childLayout=tableLayout;fixedRows=1;rowLines=0;fontStyle=1;align=center;resizeLast=1;fontSize=12;" parent="q4gJIiIvbS1eZ_yKjsUI-1" vertex="1"><mxGeometry y="525" width="250" height="120" as="geometry"/></mxCell><mxCell id="tDF9gC9092chXieuoFsO-1" value="" style="shape=partialRectangle;collapsible=0;dropTarget=0;pointerEvents=0;fillColor=none;points=[[0,0.5],[1,0.5]];portConstraint=eastwest;top=0;left=0;right=0;bottom=1;fontSize=12;" parent="tDF9gC9092chXieuoFsO-0" vertex="1"><mxGeometry y="30" width="250" height="30" as="geometry"/></mxCell><mxCell id="tDF9gC9092chXieuoFsO-2" value="PK" style="shape=partialRectangle;overflow=hidden;connectable=0;fillColor=none;top=0;left=0;bottom=0;right=0;fontStyle=1;fontSize=12;" parent="tDF9gC9092chXieuoFsO-1" vertex="1"><mxGeometry width="30" height="30" as="geometry"/></mxCell><mxCell id="tDF9gC9092chXieuoFsO-3" value="id int NOT NULL " style="shape=partialRectangle;overflow=hidden;connectable=0;fillColor=none;top=0;left=0;bottom=0;right=0;align=left;spacingLeft=6;fontStyle=5;fontSize=12;" parent="tDF9gC9092chXieuoFsO-1" vertex="1"><mxGeometry x="30" width="220" height="30" as="geometry"/></mxCell><mxCell id="tDF9gC9092chXieuoFsO-4" value="" style="shape=partialRectangle;collapsible=0;dropTarget=0;pointerEvents=0;fillColor=none;points=[[0,0.5],[1,0.5]];portConstraint=eastwest;top=0;left=0;right=0;bottom=0;fontSize=12;" parent="tDF9gC9092chXieuoFsO-0" vertex="1"><mxGeometry y="60" width="250" height="30" as="geometry"/></mxCell><mxCell id="tDF9gC9092chXieuoFsO-5" value="" style="shape=partialRectangle;overflow=hidden;connectable=0;fillColor=none;top=0;left=0;bottom=0;right=0;fontSize=12;" parent="tDF9gC9092chXieuoFsO-4" vertex="1"><mxGeometry width="30" height="30" as="geometry"/></mxCell><mxCell id="tDF9gC9092chXieuoFsO-6" value="nome varchar(100) NOT NULL" style="shape=partialRectangle;overflow=hidden;connectable=0;fillColor=none;top=0;left=0;bottom=0;right=0;align=left;spacingLeft=6;fontSize=12;" parent="tDF9gC9092chXieuoFsO-4" vertex="1"><mxGeometry x="30" width="220" height="30" as="geometry"/></mxCell><mxCell id="tDF9gC9092chXieuoFsO-7" value="" style="shape=partialRectangle;collapsible=0;dropTarget=0;pointerEvents=0;fillColor=none;points=[[0,0.5],[1,0.5]];portConstraint=eastwest;top=0;left=0;right=0;bottom=0;fontSize=12;" parent="tDF9gC9092chXieuoFsO-0" vertex="1"><mxGeometry y="90" width="250" height="30" as="geometry"/></mxCell><mxCell id="tDF9gC9092chXieuoFsO-8" value="FK" style="shape=partialRectangle;overflow=hidden;connectable=0;fillColor=none;top=0;left=0;bottom=0;right=0;fontSize=12;" parent="tDF9gC9092chXieuoFsO-7" vertex="1"><mxGeometry width="30" height="30" as="geometry"/></mxCell><mxCell id="tDF9gC9092chXieuoFsO-9" value="estado_fk int NOT NULL" style="shape=partialRectangle;overflow=hidden;connectable=0;fillColor=none;top=0;left=0;bottom=0;right=0;align=left;spacingLeft=6;fontSize=12;" parent="tDF9gC9092chXieuoFsO-7" vertex="1"><mxGeometry x="30" width="220" height="30" as="geometry"/></mxCell><mxCell id="tDF9gC9092chXieuoFsO-22" value="" style="edgeStyle=orthogonalEdgeStyle;fontSize=12;html=1;endArrow=ERoneToMany;exitX=1;exitY=0.5;exitDx=0;exitDy=0;entryX=0;entryY=0.5;entryDx=0;entryDy=0;" parent="q4gJIiIvbS1eZ_yKjsUI-1" source="tDF9gC9092chXieuoFsO-1" target="tMIzNla4LTOfME5UGENZ-63" edge="1"><mxGeometry width="100" height="100" relative="1" as="geometry"><mxPoint x="370" y="610" as="sourcePoint"/><mxPoint x="470" y="510" as="targetPoint"/></mxGeometry></mxCell><mxCell id="tDF9gC9092chXieuoFsO-33" value="" style="edgeStyle=orthogonalEdgeStyle;fontSize=12;html=1;endArrow=ERoneToMany;" parent="q4gJIiIvbS1eZ_yKjsUI-1" source="tDF9gC9092chXieuoFsO-24" target="tDF9gC9092chXieuoFsO-7" edge="1"><mxGeometry width="100" height="100" relative="1" as="geometry"><mxPoint x="370" y="720" as="sourcePoint"/><mxPoint x="470" y="620" as="targetPoint"/></mxGeometry></mxCell><mxCell id="tMIzNla4LTOfME5UGENZ-22" value="Produto" style="shape=table;startSize=30;container=1;collapsible=1;childLayout=tableLayout;fixedRows=1;rowLines=0;fontStyle=1;align=center;resizeLast=1;fontSize=12;" parent="q4gJIiIvbS1eZ_yKjsUI-1" vertex="1"><mxGeometry x="840" y="20" width="250" height="180" as="geometry"/></mxCell><mxCell id="tMIzNla4LTOfME5UGENZ-23" value="" style="shape=partialRectangle;collapsible=0;dropTarget=0;pointerEvents=0;fillColor=none;points=[[0,0.5],[1,0.5]];portConstraint=eastwest;top=0;left=0;right=0;bottom=1;fontSize=12;" parent="tMIzNla4LTOfME5UGENZ-22" vertex="1"><mxGeometry y="30" width="250" height="30" as="geometry"/></mxCell><mxCell id="tMIzNla4LTOfME5UGENZ-24" value="PK" style="shape=partialRectangle;overflow=hidden;connectable=0;fillColor=none;top=0;left=0;bottom=0;right=0;fontStyle=1;fontSize=12;" parent="tMIzNla4LTOfME5UGENZ-23" vertex="1"><mxGeometry width="30" height="30" as="geometry"/></mxCell><mxCell id="tMIzNla4LTOfME5UGENZ-25" value="id int NOT NULL " style="shape=partialRectangle;overflow=hidden;connectable=0;fillColor=none;top=0;left=0;bottom=0;right=0;align=left;spacingLeft=6;fontStyle=5;fontSize=12;" parent="tMIzNla4LTOfME5UGENZ-23" vertex="1"><mxGeometry x="30" width="220" height="30" as="geometry"/></mxCell><mxCell id="tMIzNla4LTOfME5UGENZ-26" value="" style="shape=partialRectangle;collapsible=0;dropTarget=0;pointerEvents=0;fillColor=none;points=[[0,0.5],[1,0.5]];portConstraint=eastwest;top=0;left=0;right=0;bottom=0;fontSize=12;" parent="tMIzNla4LTOfME5UGENZ-22" vertex="1"><mxGeometry y="60" width="250" height="30" as="geometry"/></mxCell><mxCell id="tMIzNla4LTOfME5UGENZ-27" value="" style="shape=partialRectangle;overflow=hidden;connectable=0;fillColor=none;top=0;left=0;bottom=0;right=0;fontSize=12;" parent="tMIzNla4LTOfME5UGENZ-26" vertex="1"><mxGeometry width="30" height="30" as="geometry"/></mxCell><mxCell id="tMIzNla4LTOfME5UGENZ-28" value="nome varchar(50) NOT NULL" style="shape=partialRectangle;overflow=hidden;connectable=0;fillColor=none;top=0;left=0;bottom=0;right=0;align=left;spacingLeft=6;fontSize=12;" parent="tMIzNla4LTOfME5UGENZ-26" vertex="1"><mxGeometry x="30" width="220" height="30" as="geometry"/></mxCell><mxCell id="tMIzNla4LTOfME5UGENZ-29" value="" style="shape=partialRectangle;collapsible=0;dropTarget=0;pointerEvents=0;fillColor=none;points=[[0,0.5],[1,0.5]];portConstraint=eastwest;top=0;left=0;right=0;bottom=0;fontSize=12;" parent="tMIzNla4LTOfME5UGENZ-22" vertex="1"><mxGeometry y="90" width="250" height="30" as="geometry"/></mxCell><mxCell id="tMIzNla4LTOfME5UGENZ-30" value="FK" style="shape=partialRectangle;overflow=hidden;connectable=0;fillColor=none;top=0;left=0;bottom=0;right=0;fontSize=12;" parent="tMIzNla4LTOfME5UGENZ-29" vertex="1"><mxGeometry width="30" height="30" as="geometry"/></mxCell><mxCell id="tMIzNla4LTOfME5UGENZ-31" value="setor_fk int NOT NULL" style="shape=partialRectangle;overflow=hidden;connectable=0;fillColor=none;top=0;left=0;bottom=0;right=0;align=left;spacingLeft=6;fontSize=12;" parent="tMIzNla4LTOfME5UGENZ-29" vertex="1"><mxGeometry x="30" width="220" height="30" as="geometry"/></mxCell><mxCell id="tMIzNla4LTOfME5UGENZ-35" value="" style="shape=partialRectangle;collapsible=0;dropTarget=0;pointerEvents=0;fillColor=none;points=[[0,0.5],[1,0.5]];portConstraint=eastwest;top=0;left=0;right=0;bottom=0;fontSize=12;" parent="tMIzNla4LTOfME5UGENZ-22" vertex="1"><mxGeometry y="120" width="250" height="30" as="geometry"/></mxCell><mxCell id="tMIzNla4LTOfME5UGENZ-36" value="" style="shape=partialRectangle;overflow=hidden;connectable=0;fillColor=none;top=0;left=0;bottom=0;right=0;fontSize=12;" parent="tMIzNla4LTOfME5UGENZ-35" vertex="1"><mxGeometry width="30" height="30" as="geometry"/></mxCell><mxCell id="tMIzNla4LTOfME5UGENZ-37" value="unidade_medida_fk int NOT NULL" style="shape=partialRectangle;overflow=hidden;connectable=0;fillColor=none;top=0;left=0;bottom=0;right=0;align=left;spacingLeft=6;fontSize=12;" parent="tMIzNla4LTOfME5UGENZ-35" vertex="1"><mxGeometry x="30" width="220" height="30" as="geometry"/></mxCell><mxCell id="tMIzNla4LTOfME5UGENZ-38" value="" style="shape=partialRectangle;collapsible=0;dropTarget=0;pointerEvents=0;fillColor=none;points=[[0,0.5],[1,0.5]];portConstraint=eastwest;top=0;left=0;right=0;bottom=0;fontSize=12;" parent="tMIzNla4LTOfME5UGENZ-22" vertex="1"><mxGeometry y="150" width="250" height="30" as="geometry"/></mxCell><mxCell id="tMIzNla4LTOfME5UGENZ-39" value="" style="shape=partialRectangle;overflow=hidden;connectable=0;fillColor=none;top=0;left=0;bottom=0;right=0;fontSize=12;" parent="tMIzNla4LTOfME5UGENZ-38" vertex="1"><mxGeometry width="30" height="30" as="geometry"/></mxCell><mxCell id="tMIzNla4LTOfME5UGENZ-40" value="vencimento date NOT NULL" style="shape=partialRectangle;overflow=hidden;connectable=0;fillColor=none;top=0;left=0;bottom=0;right=0;align=left;spacingLeft=6;fontSize=12;" parent="tMIzNla4LTOfME5UGENZ-38" vertex="1"><mxGeometry x="30" width="220" height="30" as="geometry"/></mxCell><mxCell id="tDF9gC9092chXieuoFsO-69" value="UnidadeMedida" style="shape=table;startSize=30;container=1;collapsible=1;childLayout=tableLayout;fixedRows=1;rowLines=0;fontStyle=1;align=center;resizeLast=1;fontSize=12;" parent="q4gJIiIvbS1eZ_yKjsUI-1" vertex="1"><mxGeometry x="1380" y="140" width="250" height="120" as="geometry"/></mxCell><mxCell id="tDF9gC9092chXieuoFsO-70" value="" style="shape=partialRectangle;collapsible=0;dropTarget=0;pointerEvents=0;fillColor=none;points=[[0,0.5],[1,0.5]];portConstraint=eastwest;top=0;left=0;right=0;bottom=1;fontSize=12;" parent="tDF9gC9092chXieuoFsO-69" vertex="1"><mxGeometry y="30" width="250" height="30" as="geometry"/></mxCell><mxCell id="tDF9gC9092chXieuoFsO-71" value="PK" style="shape=partialRectangle;overflow=hidden;connectable=0;fillColor=none;top=0;left=0;bottom=0;right=0;fontStyle=1;fontSize=12;" parent="tDF9gC9092chXieuoFsO-70" vertex="1"><mxGeometry width="30" height="30" as="geometry"/></mxCell><mxCell id="tDF9gC9092chXieuoFsO-72" value="id int NOT NULL " style="shape=partialRectangle;overflow=hidden;connectable=0;fillColor=none;top=0;left=0;bottom=0;right=0;align=left;spacingLeft=6;fontStyle=5;fontSize=12;" parent="tDF9gC9092chXieuoFsO-70" vertex="1"><mxGeometry x="30" width="220" height="30" as="geometry"/></mxCell><mxCell id="tDF9gC9092chXieuoFsO-73" value="" style="shape=partialRectangle;collapsible=0;dropTarget=0;pointerEvents=0;fillColor=none;points=[[0,0.5],[1,0.5]];portConstraint=eastwest;top=0;left=0;right=0;bottom=0;fontSize=12;" parent="tDF9gC9092chXieuoFsO-69" vertex="1"><mxGeometry y="60" width="250" height="30" as="geometry"/></mxCell><mxCell id="tDF9gC9092chXieuoFsO-74" value="" style="shape=partialRectangle;overflow=hidden;connectable=0;fillColor=none;top=0;left=0;bottom=0;right=0;fontSize=12;" parent="tDF9gC9092chXieuoFsO-73" vertex="1"><mxGeometry width="30" height="30" as="geometry"/></mxCell><mxCell id="tDF9gC9092chXieuoFsO-75" value="nome varchar(50) NOT NULL" style="shape=partialRectangle;overflow=hidden;connectable=0;fillColor=none;top=0;left=0;bottom=0;right=0;align=left;spacingLeft=6;fontSize=12;" parent="tDF9gC9092chXieuoFsO-73" vertex="1"><mxGeometry x="30" width="220" height="30" as="geometry"/></mxCell><mxCell id="tDF9gC9092chXieuoFsO-76" value="" style="shape=partialRectangle;collapsible=0;dropTarget=0;pointerEvents=0;fillColor=none;points=[[0,0.5],[1,0.5]];portConstraint=eastwest;top=0;left=0;right=0;bottom=0;fontSize=12;" parent="tDF9gC9092chXieuoFsO-69" vertex="1"><mxGeometry y="90" width="250" height="30" as="geometry"/></mxCell><mxCell id="tDF9gC9092chXieuoFsO-77" value="" style="shape=partialRectangle;overflow=hidden;connectable=0;fillColor=none;top=0;left=0;bottom=0;right=0;fontSize=12;" parent="tDF9gC9092chXieuoFsO-76" vertex="1"><mxGeometry width="30" height="30" as="geometry"/></mxCell><mxCell id="tDF9gC9092chXieuoFsO-78" value="sigla varchar(3) NOT NULL" style="shape=partialRectangle;overflow=hidden;connectable=0;fillColor=none;top=0;left=0;bottom=0;right=0;align=left;spacingLeft=6;fontSize=12;" parent="tDF9gC9092chXieuoFsO-76" vertex="1"><mxGeometry x="30" width="220" height="30" as="geometry"/></mxCell><mxCell id="G_IG8xLIvht6qTOggAEC-22" value="ProdutoFornecedor" style="shape=table;startSize=30;container=1;collapsible=1;childLayout=tableLayout;fixedRows=1;rowLines=0;fontStyle=1;align=center;resizeLast=1;" parent="q4gJIiIvbS1eZ_yKjsUI-1" vertex="1"><mxGeometry x="850" y="260" width="250" height="100" as="geometry"/></mxCell><mxCell id="G_IG8xLIvht6qTOggAEC-23" value="" style="shape=partialRectangle;collapsible=0;dropTarget=0;pointerEvents=0;fillColor=none;top=0;left=0;bottom=0;right=0;points=[[0,0.5],[1,0.5]];portConstraint=eastwest;" parent="G_IG8xLIvht6qTOggAEC-22" vertex="1"><mxGeometry y="30" width="250" height="30" as="geometry"/></mxCell><mxCell id="G_IG8xLIvht6qTOggAEC-24" value="PFK1" style="shape=partialRectangle;connectable=0;fillColor=none;top=0;left=0;bottom=0;right=0;fontStyle=1;overflow=hidden;" parent="G_IG8xLIvht6qTOggAEC-23" vertex="1"><mxGeometry width="60" height="30" as="geometry"/></mxCell><mxCell id="G_IG8xLIvht6qTOggAEC-25" value="produto_fk int NOT NULL" style="shape=partialRectangle;connectable=0;fillColor=none;top=0;left=0;bottom=0;right=0;align=left;spacingLeft=6;fontStyle=5;overflow=hidden;" parent="G_IG8xLIvht6qTOggAEC-23" vertex="1"><mxGeometry x="60" width="190" height="30" as="geometry"/></mxCell><mxCell id="G_IG8xLIvht6qTOggAEC-26" value="" style="shape=partialRectangle;collapsible=0;dropTarget=0;pointerEvents=0;fillColor=none;top=0;left=0;bottom=1;right=0;points=[[0,0.5],[1,0.5]];portConstraint=eastwest;" parent="G_IG8xLIvht6qTOggAEC-22" vertex="1"><mxGeometry y="60" width="250" height="30" as="geometry"/></mxCell><mxCell id="G_IG8xLIvht6qTOggAEC-27" value="PFK2" style="shape=partialRectangle;connectable=0;fillColor=none;top=0;left=0;bottom=0;right=0;fontStyle=1;overflow=hidden;" parent="G_IG8xLIvht6qTOggAEC-26" vertex="1"><mxGeometry width="60" height="30" as="geometry"/></mxCell><mxCell id="G_IG8xLIvht6qTOggAEC-28" value="fornecedor_fk int NOT NULL" style="shape=partialRectangle;connectable=0;fillColor=none;top=0;left=0;bottom=0;right=0;align=left;spacingLeft=6;fontStyle=5;overflow=hidden;" parent="G_IG8xLIvht6qTOggAEC-26" vertex="1"><mxGeometry x="60" width="190" height="30" as="geometry"/></mxCell><mxCell id="tDF9gC9092chXieuoFsO-23" value="Estado" style="shape=table;startSize=30;container=1;collapsible=1;childLayout=tableLayout;fixedRows=1;rowLines=0;fontStyle=1;align=center;resizeLast=1;fontSize=12;" parent="q4gJIiIvbS1eZ_yKjsUI-1" vertex="1"><mxGeometry x="390" y="640" width="250" height="120" as="geometry"/></mxCell><mxCell id="tDF9gC9092chXieuoFsO-24" value="" style="shape=partialRectangle;collapsible=0;dropTarget=0;pointerEvents=0;fillColor=none;points=[[0,0.5],[1,0.5]];portConstraint=eastwest;top=0;left=0;right=0;bottom=1;fontSize=12;" parent="tDF9gC9092chXieuoFsO-23" vertex="1"><mxGeometry y="30" width="250" height="30" as="geometry"/></mxCell><mxCell id="tDF9gC9092chXieuoFsO-25" value="PK" style="shape=partialRectangle;overflow=hidden;connectable=0;fillColor=none;top=0;left=0;bottom=0;right=0;fontStyle=1;fontSize=12;" parent="tDF9gC9092chXieuoFsO-24" vertex="1"><mxGeometry width="30" height="30" as="geometry"/></mxCell><mxCell id="tDF9gC9092chXieuoFsO-26" value="id int NOT NULL " style="shape=partialRectangle;overflow=hidden;connectable=0;fillColor=none;top=0;left=0;bottom=0;right=0;align=left;spacingLeft=6;fontStyle=5;fontSize=12;" parent="tDF9gC9092chXieuoFsO-24" vertex="1"><mxGeometry x="30" width="220" height="30" as="geometry"/></mxCell><mxCell id="tDF9gC9092chXieuoFsO-27" value="" style="shape=partialRectangle;collapsible=0;dropTarget=0;pointerEvents=0;fillColor=none;points=[[0,0.5],[1,0.5]];portConstraint=eastwest;top=0;left=0;right=0;bottom=0;fontSize=12;" parent="tDF9gC9092chXieuoFsO-23" vertex="1"><mxGeometry y="60" width="250" height="30" as="geometry"/></mxCell><mxCell id="tDF9gC9092chXieuoFsO-28" value="" style="shape=partialRectangle;overflow=hidden;connectable=0;fillColor=none;top=0;left=0;bottom=0;right=0;fontSize=12;" parent="tDF9gC9092chXieuoFsO-27" vertex="1"><mxGeometry width="30" height="30" as="geometry"/></mxCell><mxCell id="tDF9gC9092chXieuoFsO-29" value="nome varchar(100) NOT NULL" style="shape=partialRectangle;overflow=hidden;connectable=0;fillColor=none;top=0;left=0;bottom=0;right=0;align=left;spacingLeft=6;fontSize=12;" parent="tDF9gC9092chXieuoFsO-27" vertex="1"><mxGeometry x="30" width="220" height="30" as="geometry"/></mxCell><mxCell id="0" value="" style="shape=partialRectangle;collapsible=0;dropTarget=0;pointerEvents=0;fillColor=none;points=[[0,0.5],[1,0.5]];portConstraint=eastwest;top=0;left=0;right=0;bottom=0;fontSize=12;" parent="tDF9gC9092chXieuoFsO-23" vertex="1"><mxGeometry y="90" width="250" height="30" as="geometry"/></mxCell><mxCell id="1" value="" style="shape=partialRectangle;overflow=hidden;connectable=0;fillColor=none;top=0;left=0;bottom=0;right=0;fontSize=12;" parent="0" vertex="1"><mxGeometry width="30" height="30" as="geometry"/></mxCell><mxCell id="2" value="uf char(2) NOT NULL" style="shape=partialRectangle;overflow=hidden;connectable=0;fillColor=none;top=0;left=0;bottom=0;right=0;align=left;spacingLeft=6;fontSize=12;" parent="0" vertex="1"><mxGeometry x="30" width="220" height="30" as="geometry"/></mxCell><mxCell id="tDF9gC9092chXieuoFsO-92" value="Estoque" style="shape=table;startSize=30;container=1;collapsible=1;childLayout=tableLayout;fixedRows=1;rowLines=0;fontStyle=1;align=center;resizeLast=1;fontSize=12;" parent="q4gJIiIvbS1eZ_yKjsUI-1" vertex="1"><mxGeometry x="1350" y="20" width="250" height="90" as="geometry"/></mxCell><mxCell id="tDF9gC9092chXieuoFsO-93" value="" style="shape=partialRectangle;collapsible=0;dropTarget=0;pointerEvents=0;fillColor=none;points=[[0,0.5],[1,0.5]];portConstraint=eastwest;top=0;left=0;right=0;bottom=1;fontSize=12;" parent="tDF9gC9092chXieuoFsO-92" vertex="1"><mxGeometry y="30" width="250" height="30" as="geometry"/></mxCell><mxCell id="tDF9gC9092chXieuoFsO-94" value="PFK" style="shape=partialRectangle;overflow=hidden;connectable=0;fillColor=none;top=0;left=0;bottom=0;right=0;fontStyle=1;fontSize=12;" parent="tDF9gC9092chXieuoFsO-93" vertex="1"><mxGeometry width="30" height="30" as="geometry"/></mxCell><mxCell id="tDF9gC9092chXieuoFsO-95" value="id int NOT NULL " style="shape=partialRectangle;overflow=hidden;connectable=0;fillColor=none;top=0;left=0;bottom=0;right=0;align=left;spacingLeft=6;fontStyle=5;fontSize=12;" parent="tDF9gC9092chXieuoFsO-93" vertex="1"><mxGeometry x="30" width="220" height="30" as="geometry"/></mxCell><mxCell id="tDF9gC9092chXieuoFsO-96" value="" style="shape=partialRectangle;collapsible=0;dropTarget=0;pointerEvents=0;fillColor=none;points=[[0,0.5],[1,0.5]];portConstraint=eastwest;top=0;left=0;right=0;bottom=0;fontSize=12;" parent="tDF9gC9092chXieuoFsO-92" vertex="1"><mxGeometry y="60" width="250" height="30" as="geometry"/></mxCell><mxCell id="tDF9gC9092chXieuoFsO-97" value="" style="shape=partialRectangle;overflow=hidden;connectable=0;fillColor=none;top=0;left=0;bottom=0;right=0;fontSize=12;" parent="tDF9gC9092chXieuoFsO-96" vertex="1"><mxGeometry width="30" height="30" as="geometry"/></mxCell><mxCell id="tDF9gC9092chXieuoFsO-98" value="quantidade decimal(10,2) NOT NULL" style="shape=partialRectangle;overflow=hidden;connectable=0;fillColor=none;top=0;left=0;bottom=0;right=0;align=left;spacingLeft=6;fontSize=12;" parent="tDF9gC9092chXieuoFsO-96" vertex="1"><mxGeometry x="30" width="220" height="30" as="geometry"/></mxCell><mxCell id="tDF9gC9092chXieuoFsO-68" value="" style="edgeStyle=elbowEdgeStyle;fontSize=12;html=1;endArrow=ERoneToMany;" parent="q4gJIiIvbS1eZ_yKjsUI-1" source="tDF9gC9092chXieuoFsO-47" target="G_IG8xLIvht6qTOggAEC-26" edge="1"><mxGeometry width="100" height="100" relative="1" as="geometry"><mxPoint x="990" y="310" as="sourcePoint"/><mxPoint x="1090" y="210" as="targetPoint"/></mxGeometry></mxCell><mxCell id="tDF9gC9092chXieuoFsO-91" value="" style="edgeStyle=orthogonalEdgeStyle;fontSize=12;html=1;endArrow=ERoneToMany;" parent="q4gJIiIvbS1eZ_yKjsUI-1" source="tDF9gC9092chXieuoFsO-70" target="tMIzNla4LTOfME5UGENZ-35" edge="1"><mxGeometry width="100" height="100" relative="1" as="geometry"><mxPoint x="1290" y="345" as="sourcePoint"/><mxPoint x="1100" y="255" as="targetPoint"/></mxGeometry></mxCell><mxCell id="tDF9gC9092chXieuoFsO-102" value="" style="edgeStyle=entityRelationEdgeStyle;fontSize=12;html=1;endArrow=ERmandOne;startArrow=ERmandOne;entryX=0;entryY=0.5;entryDx=0;entryDy=0;exitX=1;exitY=0.5;exitDx=0;exitDy=0;" parent="q4gJIiIvbS1eZ_yKjsUI-1" source="tMIzNla4LTOfME5UGENZ-23" target="tDF9gC9092chXieuoFsO-93" edge="1"><mxGeometry width="100" height="100" relative="1" as="geometry"><mxPoint x="1080" y="160" as="sourcePoint"/><mxPoint x="1180" y="60" as="targetPoint"/></mxGeometry></mxCell><mxCell id="G_IG8xLIvht6qTOggAEC-7" value="" style="edgeStyle=entityRelationEdgeStyle;fontSize=12;html=1;endArrow=ERoneToMany;entryX=0;entryY=0.5;entryDx=0;entryDy=0;" parent="q4gJIiIvbS1eZ_yKjsUI-1" source="G_IG8xLIvht6qTOggAEC-1" target="tMIzNla4LTOfME5UGENZ-29" edge="1"><mxGeometry width="100" height="100" relative="1" as="geometry"><mxPoint x="1280" y="415" as="sourcePoint"/><mxPoint x="1100" y="225" as="targetPoint"/></mxGeometry></mxCell><mxCell id="G_IG8xLIvht6qTOggAEC-8" value="" style="edgeStyle=orthogonalEdgeStyle;fontSize=12;html=1;endArrow=ERmandOne;startArrow=ERmandOne;exitX=1;exitY=0.5;exitDx=0;exitDy=0;entryX=0;entryY=0.5;entryDx=0;entryDy=0;" parent="q4gJIiIvbS1eZ_yKjsUI-1" source="tMIzNla4LTOfME5UGENZ-45" target="tDF9gC9092chXieuoFsO-53" edge="1"><mxGeometry width="100" height="100" relative="1" as="geometry"><mxPoint x="639.9999999999998" y="370" as="sourcePoint"/><mxPoint x="750" y="500" as="targetPoint"/><Array as="points"><mxPoint x="770" y="365"/><mxPoint x="770" y="515"/></Array></mxGeometry></mxCell><mxCell id="tDF9gC9092chXieuoFsO-46" value="Fornecedor" style="shape=table;startSize=30;container=1;collapsible=1;childLayout=tableLayout;fixedRows=1;rowLines=0;fontStyle=1;align=center;resizeLast=1;fontSize=12;" parent="q4gJIiIvbS1eZ_yKjsUI-1" vertex="1"><mxGeometry x="1230" y="410" width="250" height="160" as="geometry"/></mxCell><mxCell id="tDF9gC9092chXieuoFsO-47" value="" style="shape=partialRectangle;collapsible=0;dropTarget=0;pointerEvents=0;fillColor=none;points=[[0,0.5],[1,0.5]];portConstraint=eastwest;top=0;left=0;right=0;bottom=1;fontSize=12;" parent="tDF9gC9092chXieuoFsO-46" vertex="1"><mxGeometry y="30" width="250" height="30" as="geometry"/></mxCell><mxCell id="tDF9gC9092chXieuoFsO-48" value="PK" style="shape=partialRectangle;overflow=hidden;connectable=0;fillColor=none;top=0;left=0;bottom=0;right=0;fontStyle=1;fontSize=12;" parent="tDF9gC9092chXieuoFsO-47" vertex="1"><mxGeometry width="30" height="30" as="geometry"/></mxCell><mxCell id="tDF9gC9092chXieuoFsO-49" value="id int NOT NULL " style="shape=partialRectangle;overflow=hidden;connectable=0;fillColor=none;top=0;left=0;bottom=0;right=0;align=left;spacingLeft=6;fontStyle=5;fontSize=12;" parent="tDF9gC9092chXieuoFsO-47" vertex="1"><mxGeometry x="30" width="220" height="30" as="geometry"/></mxCell><mxCell id="tDF9gC9092chXieuoFsO-50" value="" style="shape=partialRectangle;collapsible=0;dropTarget=0;pointerEvents=0;fillColor=none;points=[[0,0.5],[1,0.5]];portConstraint=eastwest;top=0;left=0;right=0;bottom=0;fontSize=12;" parent="tDF9gC9092chXieuoFsO-46" vertex="1"><mxGeometry y="60" width="250" height="30" as="geometry"/></mxCell><mxCell id="tDF9gC9092chXieuoFsO-51" value="" style="shape=partialRectangle;overflow=hidden;connectable=0;fillColor=none;top=0;left=0;bottom=0;right=0;fontSize=12;" parent="tDF9gC9092chXieuoFsO-50" vertex="1"><mxGeometry width="30" height="30" as="geometry"/></mxCell><mxCell id="tDF9gC9092chXieuoFsO-52" value="nome varchar(50) NOT NULL" style="shape=partialRectangle;overflow=hidden;connectable=0;fillColor=none;top=0;left=0;bottom=0;right=0;align=left;spacingLeft=6;fontSize=12;" parent="tDF9gC9092chXieuoFsO-50" vertex="1"><mxGeometry x="30" width="220" height="30" as="geometry"/></mxCell><mxCell id="tDF9gC9092chXieuoFsO-53" value="" style="shape=partialRectangle;collapsible=0;dropTarget=0;pointerEvents=0;fillColor=none;points=[[0,0.5],[1,0.5]];portConstraint=eastwest;top=0;left=0;right=0;bottom=0;fontSize=12;" parent="tDF9gC9092chXieuoFsO-46" vertex="1"><mxGeometry y="90" width="250" height="30" as="geometry"/></mxCell><mxCell id="tDF9gC9092chXieuoFsO-54" value="FK" style="shape=partialRectangle;overflow=hidden;connectable=0;fillColor=none;top=0;left=0;bottom=0;right=0;fontSize=12;" parent="tDF9gC9092chXieuoFsO-53" vertex="1"><mxGeometry width="30" height="30" as="geometry"/></mxCell><mxCell id="tDF9gC9092chXieuoFsO-55" value="endereco_fk int NOT NULL" style="shape=partialRectangle;overflow=hidden;connectable=0;fillColor=none;top=0;left=0;bottom=0;right=0;align=left;spacingLeft=6;fontSize=12;" parent="tDF9gC9092chXieuoFsO-53" vertex="1"><mxGeometry x="30" width="220" height="30" as="geometry"/></mxCell><mxCell id="tDF9gC9092chXieuoFsO-56" value="" style="shape=partialRectangle;collapsible=0;dropTarget=0;pointerEvents=0;fillColor=none;points=[[0,0.5],[1,0.5]];portConstraint=eastwest;top=0;left=0;right=0;bottom=0;fontSize=12;" parent="tDF9gC9092chXieuoFsO-46" vertex="1"><mxGeometry y="120" width="250" height="40" as="geometry"/></mxCell><mxCell id="tDF9gC9092chXieuoFsO-57" value="" style="shape=partialRectangle;overflow=hidden;connectable=0;fillColor=none;top=0;left=0;bottom=0;right=0;fontSize=12;" parent="tDF9gC9092chXieuoFsO-56" vertex="1"><mxGeometry width="30" height="40" as="geometry"/></mxCell><mxCell id="tDF9gC9092chXieuoFsO-58" value="" style="shape=partialRectangle;overflow=hidden;connectable=0;fillColor=none;top=0;left=0;bottom=0;right=0;align=left;spacingLeft=6;fontSize=12;" parent="tDF9gC9092chXieuoFsO-56" vertex="1"><mxGeometry x="30" width="220" height="40" as="geometry"/></mxCell><mxCell id="LJAywWkPim2J0Gv5ZNsg-0" value="" style="fontSize=12;html=1;endArrow=ERoneToMany;entryX=0;entryY=0.5;entryDx=0;entryDy=0;exitX=0;exitY=0.5;exitDx=0;exitDy=0;edgeStyle=orthogonalEdgeStyle;" parent="q4gJIiIvbS1eZ_yKjsUI-1" source="tMIzNla4LTOfME5UGENZ-23" target="G_IG8xLIvht6qTOggAEC-23" edge="1"><mxGeometry width="100" height="100" relative="1" as="geometry"><mxPoint x="1390" y="195" as="sourcePoint"/><mxPoint x="1100" y="165" as="targetPoint"/><Array as="points"><mxPoint x="790" y="65"/><mxPoint x="790" y="305"/></Array></mxGeometry></mxCell></root></mxGraphModel></diagram></mxfile>